<svg xmlns="http://www.w3.org/2000/svg" viewBox="0 0 300 260">
  <rect width="300" height="260" fill="#0b1020" rx="8"/>
  <g fill="none" stroke="#22ff88" stroke-width="4">
  <circle cx="20" cy="20" r="18"/>
  <circle cx="60" cy="20" r="18"/>
  <circle cx="100" cy="20" r="18"/>
  <circle cx="140" cy="20" r="18"/>
  <circle cx="180" cy="20" r="18"/>
  <circle cx="220" cy="20" r="18"/>
  <circle cx="260" cy="20" r="18"/>
  <circle cx="20" cy="60" r="18"/>
  <circle cx="60" cy="60" r="18"/>
  <circle cx="100" cy="60" r="18"/>
  <circle cx="140" cy="60" r="18"/>
  <circle cx="180" cy="60" r="18"/>
  <circle cx="220" cy="60" r="18"/>
  <circle cx="260" cy="60" r="18"/>
  <circle cx="20" cy="100" r="18"/>
  <circle cx="60" cy="100" r="18"/>
  <circle cx="100" cy="100" r="18"/>
  <circle cx="140" cy="100" r="18"/>
  <circle cx="180" cy="100" r="18"/>
  <circle cx="220" cy="100" r="18"/>
  <circle cx="260" cy="100" r="18"/>
  <circle cx="20" cy="140" r="18"/>
  <circle cx="60" cy="140" r="18"/>
  <circle cx="100" cy="140" r="18"/>
  <circle cx="140" cy="140" r="18"/>
  <circle cx="180" cy="140" r="18"/>
  <circle cx="220" cy="140" r="18"/>
  <circle cx="260" cy="140" r="18"/>
  <circle cx="20" cy="180" r="18"/>
  <circle cx="60" cy="180" r="18"/>
  <circle cx="100" cy="180" r="18"/>
  <circle cx="140" cy="180" r="18"/>
  <circle cx="180" cy="180" r="18"/>
  <circle cx="220" cy="180" r="18"/>
  <circle cx="260" cy="180" r="18"/>
  <circle cx="20" cy="220" r="18"/>
  <circle cx="60" cy="220" r="18"/>
  <circle cx="100" cy="220" r="18"/>
  <circle cx="140" cy="220" r="18"/>
  <circle cx="180" cy="220" r="18"/>
  <circle cx="220" cy="220" r="18"/>
  <circle cx="260" cy="220" r="18"/>
  </g>
</svg>
